<?xml version="1.0" standalone="no"?><!DOCTYPE svg PUBLIC "-//W3C//DTD SVG 1.1//EN" "http://www.w3.org/Graphics/SVG/1.1/DTD/svg11.dtd"><svg t="1777444309826" class="icon" viewBox="0 0 1024 1024" version="1.1" xmlns="http://www.w3.org/2000/svg" p-id="1748" xmlns:xlink="http://www.w3.org/1999/xlink" width="200" height="200"><path d="M512 0c282.766222 0 512 229.233778 512 512s-229.233778 512-512 512S0 794.766222 0 512 229.233778 0 512 0z m-73.585778 527.729778c0 46.791111-33.28-167.111111-180.764444-216.348445-11.747556 21.646222 46.990222 74.24 28.387555 166.115556 1.706667 10.780444-78.222222-35.214222-115.370666 36.295111 0 13.937778 81.066667 25.031111 86.983111 82.090667-0.483556 2.958222-62.663111-7.196444-62.663111 22.613333 32.341333 19.228444 49.664 55.836444 51.911111 109.824 45.994667 29.553778 134.371556 45.056 265.102222 46.535111 126.549333 0.426667 216.917333-15.075556 271.132444-46.535111 7.452444-62.862222 26.567111-99.470222 57.344-109.824 9.841778-17.635556-46.108444-27.591111-57.344-22.613333-11.207111 4.977778 70.200889-59.192889 70.200889-82.090667 0-22.869333-81.237333-16.696889-97.877333 13.937778-16.668444 30.663111 3.157333-164.352 27.676444-194.702222 24.547556-30.350222-42.780444-61.212444-110.307555 108.572444 0 27.477333-53.304889-75.377778-53.304889-130.218667 0-54.840889-74.524444 49.351111-64 89.799111 10.496 40.391111-30.151111-55.267556-15.587556-213.816888-21.105778-25.571556-117.191111 150.243556-101.518222 340.366222z" fill="#00a03b" p-id="1749"></path></svg>