<?xml version="1.0" encoding="UTF-8"?>
<svg width="1024" height="1024" viewBox="0 0 1024 1024" xmlns="http://www.w3.org/2000/svg">
  <defs>
    <linearGradient id="canvas" x1="0" y1="0" x2="1024" y2="1024" gradientUnits="userSpaceOnUse">
      <stop offset="0" stop-color="#1E2A42"/>
      <stop offset="1" stop-color="#070A11"/>
    </linearGradient>
    <linearGradient id="plate" x1="156" y1="124" x2="868" y2="884" gradientUnits="userSpaceOnUse">
      <stop offset="0" stop-color="#1A2437"/>
      <stop offset="0.55" stop-color="#0D1422"/>
      <stop offset="1" stop-color="#05070C"/>
    </linearGradient>
    <linearGradient id="mark" x1="282" y1="260" x2="742" y2="742" gradientUnits="userSpaceOnUse">
      <stop offset="0" stop-color="#7AF0FF"/>
      <stop offset="0.46" stop-color="#3AA8FF"/>
      <stop offset="1" stop-color="#24E5A8"/>
    </linearGradient>
    <filter id="plateShadow" x="92" y="76" width="840" height="888" filterUnits="userSpaceOnUse">
      <feDropShadow dx="0" dy="26" stdDeviation="30" flood-color="#000000" flood-opacity="0.42"/>
    </filter>
    <filter id="markGlow" x="238" y="232" width="548" height="548" filterUnits="userSpaceOnUse">
      <feGaussianBlur stdDeviation="9" result="blur"/>
      <feMerge>
        <feMergeNode in="blur"/>
        <feMergeNode in="SourceGraphic"/>
      </feMerge>
    </filter>
  </defs>

  <rect width="1024" height="1024" rx="224" fill="url(#canvas)"/>
  <rect x="126" y="96" width="772" height="824" rx="188" fill="url(#plate)" filter="url(#plateShadow)"/>
  <rect x="168" y="138" width="688" height="740" rx="152" fill="none" stroke="#FFFFFF" stroke-width="24" stroke-opacity="0.08"/>
  <path d="M252 168C356 116 618 126 748 178" fill="none" stroke="#FFFFFF" stroke-width="20" stroke-linecap="round" stroke-opacity="0.10"/>

  <g fill="url(#mark)" filter="url(#markGlow)">
    <rect x="284" y="278" width="188" height="188" rx="42"/>
    <rect x="324" y="318" width="108" height="108" rx="24" fill="#0D1422"/>
    <rect x="356" y="350" width="44" height="44" rx="12"/>

    <rect x="552" y="278" width="188" height="188" rx="42"/>
    <rect x="592" y="318" width="108" height="108" rx="24" fill="#0D1422"/>
    <rect x="624" y="350" width="44" height="44" rx="12"/>

    <rect x="284" y="546" width="188" height="188" rx="42"/>
    <rect x="324" y="586" width="108" height="108" rx="24" fill="#0D1422"/>
    <rect x="356" y="618" width="44" height="44" rx="12"/>

    <rect x="552" y="546" width="78" height="78" rx="22"/>
    <rect x="658" y="546" width="78" height="78" rx="22"/>
    <rect x="552" y="652" width="78" height="78" rx="22"/>
    <rect x="658" y="652" width="78" height="78" rx="22"/>
  </g>
</svg>
